Coordinates
version=1
nRows=12
nColumns=28
inDegrees=yes

Units are S.I. units (second, meters, Newtons, ...)
Angles are in degrees.

endheader
time	pelvis_tilt	pelvis_list	pelvis_rotation	pelvis_tx	pelvis_ty	pelvis_tz	hip_flexion_r	hip_adduction_r	hip_rotation_r	knee_angle_r	ankle_angle_r	subtalar_angle_r	mtp_angle_r	hip_flexion_l	hip_adduction_l	hip_rotation_l	knee_angle_l	socket_flexion	socket_adduction	socket_rotation	socket_tx	socket_ty	socket_tz	foot_flex	lumbar_extension	lumbar_bending	lumbar_rotation
      0.00000000	      1.08480470	     -6.02662765	     -8.72881011	     -0.86711120	      0.99407655	      0.29779356	    -26.81433078	      7.23955691	      4.43603481	     -3.42753030	     12.18130384	     -6.51840584	      3.78058549	     22.30318430	     -8.48072230	      8.29844029	     -6.98931986	     -5.17913422	      0.00000000	      0.00000000	      0.00000000	      0.00000000	      0.00000000	     -0.32601495	    -12.62832239	      3.00314937	     11.23290971
      0.00416667	      1.02107018	     -6.05015523	     -8.64019223	     -0.86143665	      0.99343847	      0.29733072	    -26.91837222	      7.26498266	      4.50273286	     -3.65682583	     12.13599592	     -6.52594551	      3.77539937	     22.12529957	     -8.39672023	      8.31404544	     -7.02290850	     -5.20983791	      0.00000000	      0.00000000	      0.00000000	      0.00000000	      0.00000000	     -0.39902610	    -12.45689710	      3.02770985	     11.23654507
      0.00833333	      0.97398229	     -6.10766722	     -8.69051080	     -0.85594074	      0.99299302	      0.29697130	    -26.74343516	      7.27087906	      4.37384216	     -4.44687796	     11.90321059	     -6.81234838	      3.73438646	     21.86617212	     -8.40460474	      8.29766768	     -6.94966097	     -5.21789772	      0.00000000	      0.00000000	      0.00000000	      0.00000000	      0.00000000	     -0.90002363	    -12.41064155	      3.07510869	     11.25540238
      0.01250000	      0.90069696	     -6.12354040	     -8.59825153	     -0.84980263	      0.99236011	      0.29649511	    -26.83640507	      7.29411418	      4.45820910	     -4.70887441	     11.85082447	     -6.82244115	      3.73148725	     21.66648737	     -8.31025735	      8.33302311	     -6.97892542	     -5.26139037	      0.00000000	      0.00000000	      0.00000000	      0.00000000	      0.00000000	     -0.96663061	    -12.23430575	      3.09294668	     11.25831413
      0.01666667	      0.83200103	     -6.17320569	     -8.67551687	     -0.84399129	      0.99191444	      0.29617012	    -26.57602199	      7.29074070	      4.34547513	     -5.65932310	     11.58215925	     -7.18747493	      3.71810025	     21.38772972	     -8.32876970	      8.34204635	     -6.85932837	     -5.24826374	      0.00000000	      0.00000000	      0.00000000	      0.00000000	      0.00000000	     -1.46238859	    -12.18059098	      3.11869359	     11.28110054
      0.02083333	      0.72876706	     -6.19736736	     -8.69109934	     -0.83783819	      0.99137937	      0.29582156	    -26.43582361	      7.29449209	      4.38345201	     -6.31662953	     11.38524262	     -7.45199899	      3.75852448	     21.14508279	     -8.29971853	      8.36138153	     -6.74326791	     -5.20729087	      0.00000000	      0.00000000	      0.00000000	      0.00000000	      0.00000000	     -1.73651295	    -12.01828633	      3.12125433	     11.32845418
      0.02500000	      0.66331908	     -6.19029803	     -8.64475166	     -0.83153051	      0.99087396	      0.29530966	    -26.39062330	      7.27133118	      4.47608031	     -6.86565334	     11.20188590	     -7.56671874	      3.75478440	     20.90209414	     -8.20344074	      8.47080712	     -6.73218267	     -5.22919334	      0.00000000	      0.00000000	      0.00000000	      0.00000000	      0.00000000	     -2.00774616	    -11.87812905	      3.07910485	     11.32393999
      0.02916667	      0.58330974	     -6.20275437	     -8.64133570	     -0.82521382	      0.99047290	      0.29492352	    -26.19498825	      7.27304039	      4.39302699	     -7.66677268	     10.90627285	     -7.88157874	      3.75345303	     20.64317709	     -8.14259227	      8.43985927	     -6.65127620	     -5.19737567	      0.00000000	      0.00000000	      0.00000000	      0.00000000	      0.00000000	     -2.36818861	    -11.75273010	      3.08841083	     11.32194094
      0.03333333	      0.47411526	     -6.18539612	     -8.65789574	     -0.81871485	      0.99005004	      0.29453727	    -25.98176298	      7.23435681	      4.36243671	     -8.45167686	     10.60464359	     -8.25493117	      3.79616412	     20.37830620	     -8.06778742	      8.44391244	     -6.52350248	     -5.14920752	      0.00000000	      0.00000000	      0.00000000	      0.00000000	      0.00000000	     -2.62822711	    -11.55827333	      3.07112902	     11.32810789
      0.03750000	      0.35390764	     -6.13389229	     -8.65709736	     -0.81220627	      0.98967848	      0.29420588	    -25.76032603	      7.18391806	      4.41676249	     -9.20367851	     10.25721142	     -8.62294472	      3.87090529	     20.13331376	     -7.96360152	      8.48742854	     -6.39594587	     -5.06819427	      0.00000000	      0.00000000	      0.00000000	      0.00000000	      0.00000000	     -2.88299150	    -11.33461546	      2.97097467	     11.32237902
      0.04166667	      0.25543184	     -6.07056426	     -8.64146594	     -0.80563456	      0.98938007	      0.29382085	    -25.54383857	      7.12038293	      4.44523151	     -9.98182142	      9.87627657	     -8.97328440	      3.93077156	     19.87081907	     -7.83764980	      8.52227153	     -6.29828023	     -5.03199127	      0.00000000	      0.00000000	      0.00000000	      0.00000000	      0.00000000	     -3.14385543	    -11.14130034	      2.88169970	     11.29954872
      0.04583333	      0.12696629	     -5.94887388	     -8.63933563	     -0.79904243	      0.98911367	      0.29347022	    -25.26803090	      7.00538645	      4.47757464	    -10.78954780	      9.40971192	     -9.46525878	      4.08187577	     19.63668800	     -7.65665197	      8.52433756	     -6.16359258	     -4.90972838	      0.00000000	      0.00000000	      0.00000000	      0.00000000	      0.00000000	     -3.35444685	    -10.90632841	      2.71529435	     11.26841361
